{
	"patcher" : 	{
		"fileversion" : 1,
		"appversion" : 		{
			"major" : 8,
			"minor" : 1,
			"revision" : 0,
			"architecture" : "x64",
			"modernui" : 1
		}
,
		"classnamespace" : "box",
		"rect" : [ 71.0, 396.0, 1123.0, 480.0 ],
		"bglocked" : 0,
		"openinpresentation" : 0,
		"default_fontsize" : 12.0,
		"default_fontface" : 0,
		"default_fontname" : "Arial",
		"gridonopen" : 1,
		"gridsize" : [ 15.0, 15.0 ],
		"gridsnaponopen" : 1,
		"objectsnaponopen" : 1,
		"statusbarvisible" : 2,
		"toolbarvisible" : 1,
		"lefttoolbarpinned" : 0,
		"toptoolbarpinned" : 0,
		"righttoolbarpinned" : 0,
		"bottomtoolbarpinned" : 0,
		"toolbars_unpinned_last_save" : 0,
		"tallnewobj" : 0,
		"boxanimatetime" : 200,
		"enablehscroll" : 1,
		"enablevscroll" : 1,
		"devicewidth" : 0.0,
		"description" : "",
		"digest" : "",
		"tags" : "",
		"style" : "",
		"subpatcher_template" : "",
		"boxes" : [ 			{
				"box" : 				{
					"id" : "obj-17",
					"maxclass" : "comment",
					"numinlets" : 1,
					"numoutlets" : 0,
					"patching_rect" : [ 644.0, 373.5, 51.0, 20.0 ],
					"text" : "ID"
				}

			}
, 			{
				"box" : 				{
					"id" : "obj-19",
					"maxclass" : "comment",
					"numinlets" : 1,
					"numoutlets" : 0,
					"patching_rect" : [ 1035.0, 373.5, 51.0, 20.0 ],
					"text" : "global z"
				}

			}
, 			{
				"box" : 				{
					"id" : "obj-26",
					"maxclass" : "comment",
					"numinlets" : 1,
					"numoutlets" : 0,
					"patching_rect" : [ 980.0, 373.5, 51.0, 20.0 ],
					"text" : "global y"
				}

			}
, 			{
				"box" : 				{
					"id" : "obj-27",
					"maxclass" : "comment",
					"numinlets" : 1,
					"numoutlets" : 0,
					"patching_rect" : [ 920.0, 373.5, 51.0, 20.0 ],
					"text" : "global x"
				}

			}
, 			{
				"box" : 				{
					"id" : "obj-28",
					"linecount" : 2,
					"maxclass" : "comment",
					"numinlets" : 1,
					"numoutlets" : 0,
					"patching_rect" : [ 873.0, 373.5, 51.0, 33.0 ],
					"presentation_linecount" : 2,
					"text" : "local z\n(0-1)"
				}

			}
, 			{
				"box" : 				{
					"id" : "obj-36",
					"linecount" : 2,
					"maxclass" : "comment",
					"numinlets" : 1,
					"numoutlets" : 0,
					"patching_rect" : [ 818.0, 373.5, 51.0, 33.0 ],
					"presentation_linecount" : 2,
					"text" : "local y\n(0-1)"
				}

			}
, 			{
				"box" : 				{
					"id" : "obj-37",
					"linecount" : 2,
					"maxclass" : "comment",
					"numinlets" : 1,
					"numoutlets" : 0,
					"patching_rect" : [ 758.0, 373.5, 51.0, 33.0 ],
					"presentation_linecount" : 2,
					"text" : "local x\n(0-1) "
				}

			}
, 			{
				"box" : 				{
					"id" : "obj-14",
					"maxclass" : "comment",
					"numinlets" : 1,
					"numoutlets" : 0,
					"patching_rect" : [ 147.0, 373.5, 51.0, 20.0 ],
					"text" : "ID"
				}

			}
, 			{
				"box" : 				{
					"format" : 6,
					"id" : "obj-12",
					"maxclass" : "flonum",
					"numinlets" : 1,
					"numoutlets" : 2,
					"outlettype" : [ "", "bang" ],
					"parameter_enable" : 0,
					"patching_rect" : [ 1026.571428571428442, 348.0, 50.0, 22.0 ]
				}

			}
, 			{
				"box" : 				{
					"format" : 6,
					"id" : "obj-13",
					"maxclass" : "flonum",
					"numinlets" : 1,
					"numoutlets" : 2,
					"outlettype" : [ "", "bang" ],
					"parameter_enable" : 0,
					"patching_rect" : [ 972.857142857142776, 348.0, 50.0, 22.0 ]
				}

			}
, 			{
				"box" : 				{
					"format" : 6,
					"id" : "obj-9",
					"maxclass" : "flonum",
					"numinlets" : 1,
					"numoutlets" : 2,
					"outlettype" : [ "", "bang" ],
					"parameter_enable" : 0,
					"patching_rect" : [ 920.571428571428555, 348.0, 50.0, 22.0 ]
				}

			}
, 			{
				"box" : 				{
					"format" : 6,
					"id" : "obj-10",
					"maxclass" : "flonum",
					"numinlets" : 1,
					"numoutlets" : 2,
					"outlettype" : [ "", "bang" ],
					"parameter_enable" : 0,
					"patching_rect" : [ 866.857142857142776, 348.0, 50.0, 22.0 ]
				}

			}
, 			{
				"box" : 				{
					"format" : 6,
					"id" : "obj-11",
					"maxclass" : "flonum",
					"numinlets" : 1,
					"numoutlets" : 2,
					"outlettype" : [ "", "bang" ],
					"parameter_enable" : 0,
					"patching_rect" : [ 813.14285714285711, 348.0, 50.0, 22.0 ]
				}

			}
, 			{
				"box" : 				{
					"format" : 6,
					"id" : "obj-8",
					"maxclass" : "flonum",
					"numinlets" : 1,
					"numoutlets" : 2,
					"outlettype" : [ "", "bang" ],
					"parameter_enable" : 0,
					"patching_rect" : [ 759.428571428571445, 348.0, 50.0, 22.0 ]
				}

			}
, 			{
				"box" : 				{
					"format" : 6,
					"id" : "obj-7",
					"maxclass" : "flonum",
					"numinlets" : 1,
					"numoutlets" : 2,
					"outlettype" : [ "", "bang" ],
					"parameter_enable" : 0,
					"patching_rect" : [ 705.714285714285666, 348.0, 50.0, 22.0 ]
				}

			}
, 			{
				"box" : 				{
					"format" : 6,
					"id" : "obj-6",
					"maxclass" : "flonum",
					"numinlets" : 1,
					"numoutlets" : 2,
					"outlettype" : [ "", "bang" ],
					"parameter_enable" : 0,
					"patching_rect" : [ 652.0, 348.0, 50.0, 22.0 ]
				}

			}
, 			{
				"box" : 				{
					"id" : "obj-4",
					"maxclass" : "newobj",
					"numinlets" : 1,
					"numoutlets" : 8,
					"outlettype" : [ "int", "float", "float", "float", "float", "float", "float", "float" ],
					"patching_rect" : [ 652.0, 297.0, 395.0, 22.0 ],
					"text" : "unpack 0 0. 0. 0. 0. 0. 0. 0."
				}

			}
, 			{
				"box" : 				{
					"id" : "obj-33",
					"maxclass" : "comment",
					"numinlets" : 1,
					"numoutlets" : 0,
					"patching_rect" : [ 538.0, 373.5, 51.0, 20.0 ],
					"text" : "global z"
				}

			}
, 			{
				"box" : 				{
					"id" : "obj-34",
					"maxclass" : "comment",
					"numinlets" : 1,
					"numoutlets" : 0,
					"patching_rect" : [ 483.0, 373.5, 51.0, 20.0 ],
					"text" : "global y"
				}

			}
, 			{
				"box" : 				{
					"id" : "obj-35",
					"maxclass" : "comment",
					"numinlets" : 1,
					"numoutlets" : 0,
					"patching_rect" : [ 423.0, 373.5, 51.0, 20.0 ],
					"text" : "global x"
				}

			}
, 			{
				"box" : 				{
					"id" : "obj-32",
					"linecount" : 2,
					"maxclass" : "comment",
					"numinlets" : 1,
					"numoutlets" : 0,
					"patching_rect" : [ 376.0, 373.5, 51.0, 33.0 ],
					"text" : "local z\n(0-1)"
				}

			}
, 			{
				"box" : 				{
					"format" : 6,
					"id" : "obj-31",
					"maxclass" : "flonum",
					"numinlets" : 1,
					"numoutlets" : 2,
					"outlettype" : [ "", "bang" ],
					"parameter_enable" : 0,
					"patching_rect" : [ 548.0, 345.0, 50.0, 22.0 ]
				}

			}
, 			{
				"box" : 				{
					"id" : "obj-30",
					"linecount" : 2,
					"maxclass" : "comment",
					"numinlets" : 1,
					"numoutlets" : 0,
					"patching_rect" : [ 321.0, 373.5, 51.0, 33.0 ],
					"text" : "local y\n(0-1)"
				}

			}
, 			{
				"box" : 				{
					"id" : "obj-29",
					"linecount" : 2,
					"maxclass" : "comment",
					"numinlets" : 1,
					"numoutlets" : 0,
					"patching_rect" : [ 261.0, 373.5, 51.0, 33.0 ],
					"text" : "local x\n(0-1) "
				}

			}
, 			{
				"box" : 				{
					"format" : 6,
					"id" : "obj-23",
					"maxclass" : "flonum",
					"numinlets" : 1,
					"numoutlets" : 2,
					"outlettype" : [ "", "bang" ],
					"parameter_enable" : 0,
					"patching_rect" : [ 486.0, 345.0, 50.0, 22.0 ]
				}

			}
, 			{
				"box" : 				{
					"format" : 6,
					"id" : "obj-24",
					"maxclass" : "flonum",
					"numinlets" : 1,
					"numoutlets" : 2,
					"outlettype" : [ "", "bang" ],
					"parameter_enable" : 0,
					"patching_rect" : [ 426.0, 345.0, 50.0, 22.0 ]
				}

			}
, 			{
				"box" : 				{
					"format" : 6,
					"id" : "obj-25",
					"maxclass" : "flonum",
					"numinlets" : 1,
					"numoutlets" : 2,
					"outlettype" : [ "", "bang" ],
					"parameter_enable" : 0,
					"patching_rect" : [ 367.0, 345.0, 50.0, 22.0 ]
				}

			}
, 			{
				"box" : 				{
					"format" : 6,
					"id" : "obj-22",
					"maxclass" : "flonum",
					"numinlets" : 1,
					"numoutlets" : 2,
					"outlettype" : [ "", "bang" ],
					"parameter_enable" : 0,
					"patching_rect" : [ 312.0, 345.0, 50.0, 22.0 ]
				}

			}
, 			{
				"box" : 				{
					"format" : 6,
					"id" : "obj-21",
					"maxclass" : "flonum",
					"numinlets" : 1,
					"numoutlets" : 2,
					"outlettype" : [ "", "bang" ],
					"parameter_enable" : 0,
					"patching_rect" : [ 252.0, 345.0, 50.0, 22.0 ]
				}

			}
, 			{
				"box" : 				{
					"format" : 6,
					"id" : "obj-20",
					"maxclass" : "flonum",
					"numinlets" : 1,
					"numoutlets" : 2,
					"outlettype" : [ "", "bang" ],
					"parameter_enable" : 0,
					"patching_rect" : [ 198.0, 345.0, 50.0, 22.0 ]
				}

			}
, 			{
				"box" : 				{
					"id" : "obj-18",
					"maxclass" : "number",
					"numinlets" : 1,
					"numoutlets" : 2,
					"outlettype" : [ "", "bang" ],
					"parameter_enable" : 0,
					"patching_rect" : [ 140.0, 346.0, 50.0, 22.0 ]
				}

			}
, 			{
				"box" : 				{
					"id" : "obj-16",
					"maxclass" : "newobj",
					"numinlets" : 1,
					"numoutlets" : 8,
					"outlettype" : [ "int", "int", "float", "float", "float", "float", "float", "float" ],
					"patching_rect" : [ 141.0, 301.0, 418.0, 22.0 ],
					"text" : "unpack 0 0 0. 0. 0. 0. 0. 0."
				}

			}
, 			{
				"box" : 				{
					"id" : "obj-15",
					"maxclass" : "newobj",
					"numinlets" : 3,
					"numoutlets" : 3,
					"outlettype" : [ "", "", "" ],
					"patching_rect" : [ 271.0, 116.0, 117.0, 22.0 ],
					"text" : "route /cursor /trigger"
				}

			}
, 			{
				"box" : 				{
					"id" : "obj-1",
					"maxclass" : "newobj",
					"numinlets" : 1,
					"numoutlets" : 1,
					"outlettype" : [ "" ],
					"patching_rect" : [ 271.0, 39.0, 104.0, 22.0 ],
					"text" : "udpreceive 57121"
				}

			}
 ],
		"lines" : [ 			{
				"patchline" : 				{
					"destination" : [ "obj-15", 0 ],
					"source" : [ "obj-1", 0 ]
				}

			}
, 			{
				"patchline" : 				{
					"destination" : [ "obj-16", 0 ],
					"source" : [ "obj-15", 0 ]
				}

			}
, 			{
				"patchline" : 				{
					"destination" : [ "obj-4", 0 ],
					"source" : [ "obj-15", 1 ]
				}

			}
, 			{
				"patchline" : 				{
					"destination" : [ "obj-18", 0 ],
					"source" : [ "obj-16", 0 ]
				}

			}
, 			{
				"patchline" : 				{
					"destination" : [ "obj-20", 0 ],
					"source" : [ "obj-16", 1 ]
				}

			}
, 			{
				"patchline" : 				{
					"destination" : [ "obj-21", 0 ],
					"source" : [ "obj-16", 2 ]
				}

			}
, 			{
				"patchline" : 				{
					"destination" : [ "obj-22", 0 ],
					"source" : [ "obj-16", 3 ]
				}

			}
, 			{
				"patchline" : 				{
					"destination" : [ "obj-23", 0 ],
					"source" : [ "obj-16", 6 ]
				}

			}
, 			{
				"patchline" : 				{
					"destination" : [ "obj-24", 0 ],
					"source" : [ "obj-16", 5 ]
				}

			}
, 			{
				"patchline" : 				{
					"destination" : [ "obj-25", 0 ],
					"source" : [ "obj-16", 4 ]
				}

			}
, 			{
				"patchline" : 				{
					"destination" : [ "obj-31", 0 ],
					"source" : [ "obj-16", 7 ]
				}

			}
, 			{
				"patchline" : 				{
					"destination" : [ "obj-10", 0 ],
					"source" : [ "obj-4", 4 ]
				}

			}
, 			{
				"patchline" : 				{
					"destination" : [ "obj-11", 0 ],
					"source" : [ "obj-4", 3 ]
				}

			}
, 			{
				"patchline" : 				{
					"destination" : [ "obj-12", 0 ],
					"source" : [ "obj-4", 7 ]
				}

			}
, 			{
				"patchline" : 				{
					"destination" : [ "obj-13", 0 ],
					"source" : [ "obj-4", 6 ]
				}

			}
, 			{
				"patchline" : 				{
					"destination" : [ "obj-6", 0 ],
					"source" : [ "obj-4", 0 ]
				}

			}
, 			{
				"patchline" : 				{
					"destination" : [ "obj-7", 0 ],
					"source" : [ "obj-4", 1 ]
				}

			}
, 			{
				"patchline" : 				{
					"destination" : [ "obj-8", 0 ],
					"source" : [ "obj-4", 2 ]
				}

			}
, 			{
				"patchline" : 				{
					"destination" : [ "obj-9", 0 ],
					"source" : [ "obj-4", 5 ]
				}

			}
 ],
		"dependency_cache" : [  ],
		"autosave" : 0
	}

}
